<?xml version="1.0" encoding="UTF-8" standalone="no"?>
<!DOCTYPE svg PUBLIC "-//W3C//DTD SVG 1.1//EN"
 "http://www.w3.org/Graphics/SVG/1.1/DTD/svg11.dtd">
<!-- Generated by graphviz version 2.34.0 (20141125.1709)
 -->
<!-- Title: consommateur Pages: 1 -->
<svg width="326pt" height="410pt"
 viewBox="0.00 0.00 326.00 410.00" xmlns="http://www.w3.org/2000/svg" xmlns:xlink="http://www.w3.org/1999/xlink">
<g id="graph0" class="graph" transform="scale(1 1) rotate(0) translate(4 406)">
<title>consommateur</title>
<polygon fill="white" stroke="white" points="-4,4 -4,-406 322,-406 322,4 -4,4"/>
<!-- Node1 -->
<g id="node1" class="node"><title>Node1</title>
<polygon fill="#bfbfbf" stroke="black" points="135.5,-194.5 135.5,-295.5 244.5,-295.5 244.5,-194.5 135.5,-194.5"/>
<text text-anchor="middle" x="190" y="-283.5" font-family="FreeSans" font-size="10.00">consommateur</text>
<polyline fill="none" stroke="black" points="135.5,-276.5 244.5,-276.5 "/>
<text text-anchor="middle" x="190" y="-264.5" font-family="FreeSans" font-size="10.00"> </text>
<polyline fill="none" stroke="black" points="135.5,-257.5 244.5,-257.5 "/>
<text text-anchor="start" x="143.5" y="-245.5" font-family="FreeSans" font-size="10.00">+ ~consommateur()</text>
<text text-anchor="start" x="143.5" y="-234.5" font-family="FreeSans" font-size="10.00">+ nbEntrees()</text>
<text text-anchor="start" x="143.5" y="-223.5" font-family="FreeSans" font-size="10.00">+ getEntree()</text>
<text text-anchor="start" x="143.5" y="-212.5" font-family="FreeSans" font-size="10.00">+ connecterEntree()</text>
<text text-anchor="start" x="143.5" y="-201.5" font-family="FreeSans" font-size="10.00">+ yaDesEchantillons()</text>
</g>
<!-- Node3 -->
<g id="node3" class="node"><title>Node3</title>
<g id="a_node3"><a xlink:href="classenregistreur__fichier.xhtml" target="_top" xlink:title="Un consommateur qui enregistre ses entrées dans un fichier binaire ; 44100 Hz, 16bits signé...">
<polygon fill="white" stroke="black" points="-0.5,-6.5 -0.5,-151.5 116.5,-151.5 116.5,-6.5 -0.5,-6.5"/>
<text text-anchor="middle" x="58" y="-139.5" font-family="FreeSans" font-size="10.00">enregistreur_fichier</text>
<polyline fill="none" stroke="black" points="-0.5,-132.5 116.5,-132.5 "/>
<text text-anchor="middle" x="58" y="-120.5" font-family="FreeSans" font-size="10.00"> </text>
<polyline fill="none" stroke="black" points="-0.5,-113.5 116.5,-113.5 "/>
<text text-anchor="start" x="7.5" y="-101.5" font-family="FreeSans" font-size="10.00">+ enregistreur_fichier()</text>
<text text-anchor="start" x="7.5" y="-90.5" font-family="FreeSans" font-size="10.00">+ ~enregistreur_fichier()</text>
<text text-anchor="start" x="7.5" y="-79.5" font-family="FreeSans" font-size="10.00">+ nbEntrees()</text>
<text text-anchor="start" x="7.5" y="-68.5" font-family="FreeSans" font-size="10.00">+ getEntree()</text>
<text text-anchor="start" x="7.5" y="-57.5" font-family="FreeSans" font-size="10.00">+ connecterEntree()</text>
<text text-anchor="start" x="7.5" y="-46.5" font-family="FreeSans" font-size="10.00">+ yaDesEchantillons()</text>
<text text-anchor="start" x="7.5" y="-35.5" font-family="FreeSans" font-size="10.00">+ calculer()</text>
<text text-anchor="start" x="7.5" y="-24.5" font-family="FreeSans" font-size="10.00"># getNomFichier()</text>
<text text-anchor="start" x="7.5" y="-13.5" font-family="FreeSans" font-size="10.00"># getStream()</text>
</a>
</g>
</g>
<!-- Node1&#45;&gt;Node3 -->
<g id="edge2" class="edge"><title>Node1&#45;&gt;Node3</title>
<path fill="none" stroke="midnightblue" d="M143.562,-186.305C134.524,-175.076 124.948,-163.178 115.601,-151.565"/>
<polygon fill="none" stroke="midnightblue" points="141.041,-188.754 150.037,-194.35 146.494,-184.365 141.041,-188.754"/>
</g>
<!-- Node4 -->
<g id="node4" class="node"><title>Node4</title>
<g id="a_node4"><a xlink:href="classenregistreur__fichier__texte.xhtml" target="_top" xlink:title="Un consommateur qui enregistre ses entrées dans un fichier texte ; une ligne = un échantillon de chaq...">
<polygon fill="white" stroke="black" points="134.5,-1 134.5,-157 245.5,-157 245.5,-1 134.5,-1"/>
<text text-anchor="start" x="142.5" y="-145" font-family="FreeSans" font-size="10.00">enregistreur_fichier</text>
<text text-anchor="middle" x="190" y="-134" font-family="FreeSans" font-size="10.00">_texte</text>
<polyline fill="none" stroke="black" points="134.5,-127 245.5,-127 "/>
<text text-anchor="middle" x="190" y="-115" font-family="FreeSans" font-size="10.00"> </text>
<polyline fill="none" stroke="black" points="134.5,-108 245.5,-108 "/>
<text text-anchor="start" x="142.5" y="-96" font-family="FreeSans" font-size="10.00">+ enregistreur_fichier</text>
<text text-anchor="start" x="142.5" y="-85" font-family="FreeSans" font-size="10.00">_texte()</text>
<text text-anchor="start" x="142.5" y="-74" font-family="FreeSans" font-size="10.00">+ ~enregistreur_fichier</text>
<text text-anchor="start" x="142.5" y="-63" font-family="FreeSans" font-size="10.00">_texte()</text>
<text text-anchor="start" x="142.5" y="-52" font-family="FreeSans" font-size="10.00">+ nbEntrees()</text>
<text text-anchor="start" x="142.5" y="-41" font-family="FreeSans" font-size="10.00">+ getEntree()</text>
<text text-anchor="start" x="142.5" y="-30" font-family="FreeSans" font-size="10.00">+ connecterEntree()</text>
<text text-anchor="start" x="142.5" y="-19" font-family="FreeSans" font-size="10.00">+ yaDesEchantillons()</text>
<text text-anchor="start" x="142.5" y="-8" font-family="FreeSans" font-size="10.00">+ calculer()</text>
</a>
</g>
</g>
<!-- Node1&#45;&gt;Node4 -->
<g id="edge3" class="edge"><title>Node1&#45;&gt;Node4</title>
<path fill="none" stroke="midnightblue" d="M190,-184.182C190,-175.352 190,-166.151 190,-157.032"/>
<polygon fill="none" stroke="midnightblue" points="186.5,-184.35 190,-194.35 193.5,-184.35 186.5,-184.35"/>
</g>
<!-- Node5 -->
<g id="node5" class="node"><title>Node5</title>
<g id="a_node5"><a xlink:href="classfiltre.xhtml" target="_top" xlink:title="Interface associée à un filtre sonore. Ce filtre est considéré comme un producteur / consommateur d&#39;é...">
<polygon fill="white" stroke="black" points="264,-50.5 264,-107.5 318,-107.5 318,-50.5 264,-50.5"/>
<text text-anchor="middle" x="291" y="-95.5" font-family="FreeSans" font-size="10.00">filtre</text>
<polyline fill="none" stroke="black" points="264,-88.5 318,-88.5 "/>
<text text-anchor="middle" x="291" y="-76.5" font-family="FreeSans" font-size="10.00"> </text>
<polyline fill="none" stroke="black" points="264,-69.5 318,-69.5 "/>
<text text-anchor="start" x="272" y="-57.5" font-family="FreeSans" font-size="10.00">+ ~filtre()</text>
</a>
</g>
</g>
<!-- Node1&#45;&gt;Node5 -->
<g id="edge4" class="edge"><title>Node1&#45;&gt;Node5</title>
<path fill="none" stroke="midnightblue" d="M235.588,-185.934C242.07,-176.786 248.42,-167.281 254,-158 263.654,-141.944 272.702,-122.971 279.434,-107.758"/>
<polygon fill="none" stroke="midnightblue" points="232.625,-184.058 229.617,-194.217 238.304,-188.152 232.625,-184.058"/>
</g>
<!-- Node2 -->
<g id="node2" class="node"><title>Node2</title>
<g id="a_node2"><a xlink:href="classcomposant.xhtml" target="_top" xlink:title="Interface d&#39;un composant du systeme sonore. ">
<polygon fill="white" stroke="black" points="148.5,-333 148.5,-401 231.5,-401 231.5,-333 148.5,-333"/>
<text text-anchor="middle" x="190" y="-389" font-family="FreeSans" font-size="10.00">composant</text>
<polyline fill="none" stroke="black" points="148.5,-382 231.5,-382 "/>
<text text-anchor="middle" x="190" y="-370" font-family="FreeSans" font-size="10.00"> </text>
<polyline fill="none" stroke="black" points="148.5,-363 231.5,-363 "/>
<text text-anchor="start" x="156.5" y="-351" font-family="FreeSans" font-size="10.00">+ ~composant()</text>
<text text-anchor="start" x="156.5" y="-340" font-family="FreeSans" font-size="10.00">+ calculer()</text>
</a>
</g>
</g>
<!-- Node2&#45;&gt;Node1 -->
<g id="edge1" class="edge"><title>Node2&#45;&gt;Node1</title>
<path fill="none" stroke="midnightblue" d="M190,-322.831C190,-314.01 190,-304.661 190,-295.636"/>
<polygon fill="none" stroke="midnightblue" points="186.5,-322.892 190,-332.892 193.5,-322.892 186.5,-322.892"/>
</g>
</g>
</svg>
