<?xml version="1.0" encoding="UTF-8" standalone="no"?>
<!DOCTYPE svg PUBLIC "-//W3C//DTD SVG 1.1//EN"
 "http://www.w3.org/Graphics/SVG/1.1/DTD/svg11.dtd">
<!-- Generated by graphviz version 2.34.0 (20141125.1709)
 -->
<!-- Title: composant Pages: 1 -->
<svg width="349pt" height="410pt"
 viewBox="0.00 0.00 349.00 410.00" xmlns="http://www.w3.org/2000/svg" xmlns:xlink="http://www.w3.org/1999/xlink">
<g id="graph0" class="graph" transform="scale(1 1) rotate(0) translate(4 406)">
<title>composant</title>
<polygon fill="white" stroke="white" points="-4,4 -4,-406 345,-406 345,4 -4,4"/>
<!-- Node1 -->
<g id="node1" class="node"><title>Node1</title>
<polygon fill="#bfbfbf" stroke="black" points="201.5,-333 201.5,-401 284.5,-401 284.5,-333 201.5,-333"/>
<text text-anchor="middle" x="243" y="-389" font-family="FreeSans" font-size="10.00">composant</text>
<polyline fill="none" stroke="black" points="201.5,-382 284.5,-382 "/>
<text text-anchor="middle" x="243" y="-370" font-family="FreeSans" font-size="10.00"> </text>
<polyline fill="none" stroke="black" points="201.5,-363 284.5,-363 "/>
<text text-anchor="start" x="209.5" y="-351" font-family="FreeSans" font-size="10.00">+ ~composant()</text>
<text text-anchor="start" x="209.5" y="-340" font-family="FreeSans" font-size="10.00">+ calculer()</text>
</g>
<!-- Node2 -->
<g id="node2" class="node"><title>Node2</title>
<g id="a_node2"><a xlink:href="classconsommateur.xhtml" target="_top" xlink:title="Interface d&#39;un consommateur d&#39;échantillons sonores. Il s&#39;agit d&#39;une interface décrivant un composant ...">
<polygon fill="white" stroke="black" points="131.5,-194.5 131.5,-295.5 240.5,-295.5 240.5,-194.5 131.5,-194.5"/>
<text text-anchor="middle" x="186" y="-283.5" font-family="FreeSans" font-size="10.00">consommateur</text>
<polyline fill="none" stroke="black" points="131.5,-276.5 240.5,-276.5 "/>
<text text-anchor="middle" x="186" y="-264.5" font-family="FreeSans" font-size="10.00"> </text>
<polyline fill="none" stroke="black" points="131.5,-257.5 240.5,-257.5 "/>
<text text-anchor="start" x="139.5" y="-245.5" font-family="FreeSans" font-size="10.00">+ ~consommateur()</text>
<text text-anchor="start" x="139.5" y="-234.5" font-family="FreeSans" font-size="10.00">+ nbEntrees()</text>
<text text-anchor="start" x="139.5" y="-223.5" font-family="FreeSans" font-size="10.00">+ getEntree()</text>
<text text-anchor="start" x="139.5" y="-212.5" font-family="FreeSans" font-size="10.00">+ connecterEntree()</text>
<text text-anchor="start" x="139.5" y="-201.5" font-family="FreeSans" font-size="10.00">+ yaDesEchantillons()</text>
</a>
</g>
</g>
<!-- Node1&#45;&gt;Node2 -->
<g id="edge1" class="edge"><title>Node1&#45;&gt;Node2</title>
<path fill="none" stroke="midnightblue" d="M222.904,-323.692C218.595,-314.62 214.004,-304.956 209.577,-295.636"/>
<polygon fill="none" stroke="midnightblue" points="219.822,-325.361 227.274,-332.892 226.144,-322.357 219.822,-325.361"/>
</g>
<!-- Node6 -->
<g id="node6" class="node"><title>Node6</title>
<g id="a_node6"><a xlink:href="classproducteur.xhtml" target="_top" xlink:title="Interface d&#39;un producteur d&#39;échantillons sonores. Il s&#39;agit d&#39;une interface décrivant un composant ne...">
<polygon fill="white" stroke="black" points="259,-205.5 259,-284.5 341,-284.5 341,-205.5 259,-205.5"/>
<text text-anchor="middle" x="300" y="-272.5" font-family="FreeSans" font-size="10.00">producteur</text>
<polyline fill="none" stroke="black" points="259,-265.5 341,-265.5 "/>
<text text-anchor="middle" x="300" y="-253.5" font-family="FreeSans" font-size="10.00"> </text>
<polyline fill="none" stroke="black" points="259,-246.5 341,-246.5 "/>
<text text-anchor="start" x="267" y="-234.5" font-family="FreeSans" font-size="10.00">+ ~producteur()</text>
<text text-anchor="start" x="267" y="-223.5" font-family="FreeSans" font-size="10.00">+ nbSorties()</text>
<text text-anchor="start" x="267" y="-212.5" font-family="FreeSans" font-size="10.00">+ getSortie()</text>
</a>
</g>
</g>
<!-- Node1&#45;&gt;Node6 -->
<g id="edge5" class="edge"><title>Node1&#45;&gt;Node6</title>
<path fill="none" stroke="midnightblue" d="M263.032,-323.826C269.108,-311.036 275.748,-297.058 281.703,-284.521"/>
<polygon fill="none" stroke="midnightblue" points="259.856,-322.357 258.726,-332.892 266.178,-325.361 259.856,-322.357"/>
</g>
<!-- Node3 -->
<g id="node3" class="node"><title>Node3</title>
<g id="a_node3"><a xlink:href="classenregistreur__fichier.xhtml" target="_top" xlink:title="Un consommateur qui enregistre ses entrées dans un fichier binaire ; 44100 Hz, 16bits signé...">
<polygon fill="white" stroke="black" points="-0.5,-6.5 -0.5,-151.5 116.5,-151.5 116.5,-6.5 -0.5,-6.5"/>
<text text-anchor="middle" x="58" y="-139.5" font-family="FreeSans" font-size="10.00">enregistreur_fichier</text>
<polyline fill="none" stroke="black" points="-0.5,-132.5 116.5,-132.5 "/>
<text text-anchor="middle" x="58" y="-120.5" font-family="FreeSans" font-size="10.00"> </text>
<polyline fill="none" stroke="black" points="-0.5,-113.5 116.5,-113.5 "/>
<text text-anchor="start" x="7.5" y="-101.5" font-family="FreeSans" font-size="10.00">+ enregistreur_fichier()</text>
<text text-anchor="start" x="7.5" y="-90.5" font-family="FreeSans" font-size="10.00">+ ~enregistreur_fichier()</text>
<text text-anchor="start" x="7.5" y="-79.5" font-family="FreeSans" font-size="10.00">+ nbEntrees()</text>
<text text-anchor="start" x="7.5" y="-68.5" font-family="FreeSans" font-size="10.00">+ getEntree()</text>
<text text-anchor="start" x="7.5" y="-57.5" font-family="FreeSans" font-size="10.00">+ connecterEntree()</text>
<text text-anchor="start" x="7.5" y="-46.5" font-family="FreeSans" font-size="10.00">+ yaDesEchantillons()</text>
<text text-anchor="start" x="7.5" y="-35.5" font-family="FreeSans" font-size="10.00">+ calculer()</text>
<text text-anchor="start" x="7.5" y="-24.5" font-family="FreeSans" font-size="10.00"># getNomFichier()</text>
<text text-anchor="start" x="7.5" y="-13.5" font-family="FreeSans" font-size="10.00"># getStream()</text>
</a>
</g>
</g>
<!-- Node2&#45;&gt;Node3 -->
<g id="edge2" class="edge"><title>Node2&#45;&gt;Node3</title>
<path fill="none" stroke="midnightblue" d="M140.97,-186.305C132.206,-175.076 122.92,-163.178 113.855,-151.565"/>
<polygon fill="none" stroke="midnightblue" points="138.337,-188.62 147.248,-194.35 143.855,-184.313 138.337,-188.62"/>
</g>
<!-- Node4 -->
<g id="node4" class="node"><title>Node4</title>
<g id="a_node4"><a xlink:href="classenregistreur__fichier__texte.xhtml" target="_top" xlink:title="Un consommateur qui enregistre ses entrées dans un fichier texte ; une ligne = un échantillon de chaq...">
<polygon fill="white" stroke="black" points="134.5,-1 134.5,-157 245.5,-157 245.5,-1 134.5,-1"/>
<text text-anchor="start" x="142.5" y="-145" font-family="FreeSans" font-size="10.00">enregistreur_fichier</text>
<text text-anchor="middle" x="190" y="-134" font-family="FreeSans" font-size="10.00">_texte</text>
<polyline fill="none" stroke="black" points="134.5,-127 245.5,-127 "/>
<text text-anchor="middle" x="190" y="-115" font-family="FreeSans" font-size="10.00"> </text>
<polyline fill="none" stroke="black" points="134.5,-108 245.5,-108 "/>
<text text-anchor="start" x="142.5" y="-96" font-family="FreeSans" font-size="10.00">+ enregistreur_fichier</text>
<text text-anchor="start" x="142.5" y="-85" font-family="FreeSans" font-size="10.00">_texte()</text>
<text text-anchor="start" x="142.5" y="-74" font-family="FreeSans" font-size="10.00">+ ~enregistreur_fichier</text>
<text text-anchor="start" x="142.5" y="-63" font-family="FreeSans" font-size="10.00">_texte()</text>
<text text-anchor="start" x="142.5" y="-52" font-family="FreeSans" font-size="10.00">+ nbEntrees()</text>
<text text-anchor="start" x="142.5" y="-41" font-family="FreeSans" font-size="10.00">+ getEntree()</text>
<text text-anchor="start" x="142.5" y="-30" font-family="FreeSans" font-size="10.00">+ connecterEntree()</text>
<text text-anchor="start" x="142.5" y="-19" font-family="FreeSans" font-size="10.00">+ yaDesEchantillons()</text>
<text text-anchor="start" x="142.5" y="-8" font-family="FreeSans" font-size="10.00">+ calculer()</text>
</a>
</g>
</g>
<!-- Node2&#45;&gt;Node4 -->
<g id="edge3" class="edge"><title>Node2&#45;&gt;Node4</title>
<path fill="none" stroke="midnightblue" d="M187.459,-184.182C187.674,-175.352 187.899,-166.151 188.121,-157.032"/>
<polygon fill="none" stroke="midnightblue" points="183.956,-184.267 187.211,-194.35 190.954,-184.438 183.956,-184.267"/>
</g>
<!-- Node5 -->
<g id="node5" class="node"><title>Node5</title>
<g id="a_node5"><a xlink:href="classfiltre.xhtml" target="_top" xlink:title="Interface associée à un filtre sonore. Ce filtre est considéré comme un producteur / consommateur d&#39;é...">
<polygon fill="white" stroke="black" points="267,-50.5 267,-107.5 321,-107.5 321,-50.5 267,-50.5"/>
<text text-anchor="middle" x="294" y="-95.5" font-family="FreeSans" font-size="10.00">filtre</text>
<polyline fill="none" stroke="black" points="267,-88.5 321,-88.5 "/>
<text text-anchor="middle" x="294" y="-76.5" font-family="FreeSans" font-size="10.00"> </text>
<polyline fill="none" stroke="black" points="267,-69.5 321,-69.5 "/>
<text text-anchor="start" x="275" y="-57.5" font-family="FreeSans" font-size="10.00">+ ~filtre()</text>
</a>
</g>
</g>
<!-- Node2&#45;&gt;Node5 -->
<g id="edge4" class="edge"><title>Node2&#45;&gt;Node5</title>
<path fill="none" stroke="midnightblue" d="M234.117,-186.276C241.091,-177.034 247.949,-167.411 254,-158 264.289,-141.999 274.067,-123.028 281.379,-107.801"/>
<polygon fill="none" stroke="midnightblue" points="231.283,-184.22 227.975,-194.285 236.838,-188.479 231.283,-184.22"/>
</g>
<!-- Node6&#45;&gt;Node5 -->
<g id="edge6" class="edge"><title>Node6&#45;&gt;Node5</title>
<path fill="none" stroke="midnightblue" d="M298.205,-194.927C297.159,-166.348 295.879,-131.37 295.008,-107.561"/>
<polygon fill="none" stroke="midnightblue" points="294.715,-195.269 298.578,-205.134 301.71,-195.013 294.715,-195.269"/>
</g>
</g>
</svg>
