<?xml version="1.0" encoding="UTF-8" standalone="no"?>
<!DOCTYPE svg PUBLIC "-//W3C//DTD SVG 1.1//EN"
 "http://www.w3.org/Graphics/SVG/1.1/DTD/svg11.dtd">
<!-- Generated by graphviz version 2.30.1 (20140110.0959)
 -->
<!-- Title: composant_exception Pages: 1 -->
<svg width="138pt" height="182pt"
 viewBox="0.00 0.00 138.00 182.00" xmlns="http://www.w3.org/2000/svg" xmlns:xlink="http://www.w3.org/1999/xlink">
<g id="graph0" class="graph" transform="scale(1 1) rotate(0) translate(4 178)">
<title>composant_exception</title>
<polygon fill="white" stroke="white" points="-4,5 -4,-178 135,-178 135,5 -4,5"/>
<!-- Node1 -->
<g id="node1" class="node"><title>Node1</title>
<polygon fill="#bfbfbf" stroke="black" points="0,-0.5 0,-79.5 130,-79.5 130,-0.5 0,-0.5"/>
<text text-anchor="middle" x="65" y="-67.5" font-family="FreeSans" font-size="10.00">composant_exception</text>
<polyline fill="none" stroke="black" points="0,-60.5 130,-60.5 "/>
<text text-anchor="middle" x="65" y="-48.5" font-family="FreeSans" font-size="10.00"> </text>
<polyline fill="none" stroke="black" points="0,-41.5 130,-41.5 "/>
<text text-anchor="start" x="8" y="-29.5" font-family="FreeSans" font-size="10.00">+ composant_exception()</text>
<text text-anchor="start" x="8" y="-18.5" font-family="FreeSans" font-size="10.00">+ ~composant_exception()</text>
<text text-anchor="start" x="8" y="-7.5" font-family="FreeSans" font-size="10.00">+ what()</text>
</g>
<!-- Node2 -->
<g id="node2" class="node"><title>Node2</title>
<g id="a_node2"><a xlink:title="STL class.">
<polygon fill="white" stroke="#bfbfbf" points="27.5,-116.5 27.5,-173.5 102.5,-173.5 102.5,-116.5 27.5,-116.5"/>
<text text-anchor="middle" x="65" y="-161.5" font-family="FreeSans" font-size="10.00">std::exception</text>
<polyline fill="none" stroke="#bfbfbf" points="27.5,-154.5 102.5,-154.5 "/>
<text text-anchor="middle" x="65" y="-142.5" font-family="FreeSans" font-size="10.00"> </text>
<polyline fill="none" stroke="#bfbfbf" points="27.5,-135.5 102.5,-135.5 "/>
<text text-anchor="middle" x="65" y="-123.5" font-family="FreeSans" font-size="10.00"> </text>
</a>
</g>
</g>
<!-- Node2&#45;&gt;Node1 -->
<g id="edge1" class="edge"><title>Node2&#45;&gt;Node1</title>
<path fill="none" stroke="midnightblue" d="M65,-106.156C65,-97.4733 65,-88.2318 65,-79.5205"/>
<polygon fill="none" stroke="midnightblue" points="61.5001,-106.398 65,-116.398 68.5001,-106.398 61.5001,-106.398"/>
</g>
</g>
</svg>
