<?xml version="1.0" encoding="UTF-8" standalone="no"?>
<!DOCTYPE svg PUBLIC "-//W3C//DTD SVG 1.1//EN"
 "http://www.w3.org/Graphics/SVG/1.1/DTD/svg11.dtd">
<!-- Generated by graphviz version 2.30.1 (20140110.0959)
 -->
<!-- Title: producteur Pages: 1 -->
<svg width="90pt" height="288pt"
 viewBox="0.00 0.00 90.00 288.00" xmlns="http://www.w3.org/2000/svg" xmlns:xlink="http://www.w3.org/1999/xlink">
<g id="graph0" class="graph" transform="scale(1 1) rotate(0) translate(4 284)">
<title>producteur</title>
<polygon fill="white" stroke="white" points="-4,5 -4,-284 87,-284 87,5 -4,5"/>
<!-- Node1 -->
<g id="node1" class="node"><title>Node1</title>
<polygon fill="#bfbfbf" stroke="black" points="0,-94.5 0,-173.5 82,-173.5 82,-94.5 0,-94.5"/>
<text text-anchor="middle" x="41" y="-161.5" font-family="FreeSans" font-size="10.00">producteur</text>
<polyline fill="none" stroke="black" points="0,-154.5 82,-154.5 "/>
<text text-anchor="middle" x="41" y="-142.5" font-family="FreeSans" font-size="10.00"> </text>
<polyline fill="none" stroke="black" points="0,-135.5 82,-135.5 "/>
<text text-anchor="start" x="8" y="-123.5" font-family="FreeSans" font-size="10.00">+ ~producteur()</text>
<text text-anchor="start" x="8" y="-112.5" font-family="FreeSans" font-size="10.00">+ nbSorties()</text>
<text text-anchor="start" x="8" y="-101.5" font-family="FreeSans" font-size="10.00">+ getSortie()</text>
</g>
<!-- Node3 -->
<g id="node3" class="node"><title>Node3</title>
<g id="a_node3"><a xlink:href="classfiltre.xhtml" target="_top" xlink:title="Interface associée à un filtre sonore. Ce filtre est considéré comme un producteur / consommateur d&#39;é...">
<polygon fill="white" stroke="black" points="14,-0.5 14,-57.5 68,-57.5 68,-0.5 14,-0.5"/>
<text text-anchor="middle" x="41" y="-45.5" font-family="FreeSans" font-size="10.00">filtre</text>
<polyline fill="none" stroke="black" points="14,-38.5 68,-38.5 "/>
<text text-anchor="middle" x="41" y="-26.5" font-family="FreeSans" font-size="10.00"> </text>
<polyline fill="none" stroke="black" points="14,-19.5 68,-19.5 "/>
<text text-anchor="start" x="22" y="-7.5" font-family="FreeSans" font-size="10.00">+ ~filtre()</text>
</a>
</g>
</g>
<!-- Node1&#45;&gt;Node3 -->
<g id="edge2" class="edge"><title>Node1&#45;&gt;Node3</title>
<path fill="none" stroke="midnightblue" d="M41,-84.1628C41,-75.0404 41,-65.8063 41,-57.6095"/>
<polygon fill="none" stroke="midnightblue" points="37.5001,-84.3535 41,-94.3536 44.5001,-84.3536 37.5001,-84.3535"/>
</g>
<!-- Node2 -->
<g id="node2" class="node"><title>Node2</title>
<g id="a_node2"><a xlink:href="classcomposant.xhtml" target="_top" xlink:title="Interface d&#39;un composant du systeme sonore.">
<polygon fill="white" stroke="black" points="-0.5,-211 -0.5,-279 82.5,-279 82.5,-211 -0.5,-211"/>
<text text-anchor="middle" x="41" y="-267" font-family="FreeSans" font-size="10.00">composant</text>
<polyline fill="none" stroke="black" points="-0.5,-260 82.5,-260 "/>
<text text-anchor="middle" x="41" y="-248" font-family="FreeSans" font-size="10.00"> </text>
<polyline fill="none" stroke="black" points="-0.5,-241 82.5,-241 "/>
<text text-anchor="start" x="7.5" y="-229" font-family="FreeSans" font-size="10.00">+ ~composant()</text>
<text text-anchor="start" x="7.5" y="-218" font-family="FreeSans" font-size="10.00">+ calculer()</text>
</a>
</g>
</g>
<!-- Node2&#45;&gt;Node1 -->
<g id="edge1" class="edge"><title>Node2&#45;&gt;Node1</title>
<path fill="none" stroke="midnightblue" d="M41,-200.575C41,-191.737 41,-182.493 41,-173.827"/>
<polygon fill="none" stroke="midnightblue" points="37.5001,-200.704 41,-210.704 44.5001,-200.704 37.5001,-200.704"/>
</g>
</g>
</svg>
