<?xml version="1.0" encoding="UTF-8" standalone="no"?>
<!DOCTYPE svg PUBLIC "-//W3C//DTD SVG 1.1//EN"
 "http://www.w3.org/Graphics/SVG/1.1/DTD/svg11.dtd">
<!-- Generated by graphviz version 2.30.1 (20140110.0959)
 -->
<!-- Title: enregistreur_fichier Pages: 1 -->
<svg width="124pt" height="398pt"
 viewBox="0.00 0.00 124.00 398.00" xmlns="http://www.w3.org/2000/svg" xmlns:xlink="http://www.w3.org/1999/xlink">
<g id="graph0" class="graph" transform="scale(1 1) rotate(0) translate(4 394)">
<title>enregistreur_fichier</title>
<polygon fill="white" stroke="white" points="-4,5 -4,-394 121,-394 121,5 -4,5"/>
<!-- Node1 -->
<g id="node1" class="node"><title>Node1</title>
<polygon fill="#bfbfbf" stroke="black" points="-0.5,-0.5 -0.5,-145.5 116.5,-145.5 116.5,-0.5 -0.5,-0.5"/>
<text text-anchor="middle" x="58" y="-133.5" font-family="FreeSans" font-size="10.00">enregistreur_fichier</text>
<polyline fill="none" stroke="black" points="-0.5,-126.5 116.5,-126.5 "/>
<text text-anchor="middle" x="58" y="-114.5" font-family="FreeSans" font-size="10.00"> </text>
<polyline fill="none" stroke="black" points="-0.5,-107.5 116.5,-107.5 "/>
<text text-anchor="start" x="7.5" y="-95.5" font-family="FreeSans" font-size="10.00">+ enregistreur_fichier()</text>
<text text-anchor="start" x="7.5" y="-84.5" font-family="FreeSans" font-size="10.00">+ ~enregistreur_fichier()</text>
<text text-anchor="start" x="7.5" y="-73.5" font-family="FreeSans" font-size="10.00">+ nbEntrees()</text>
<text text-anchor="start" x="7.5" y="-62.5" font-family="FreeSans" font-size="10.00">+ getEntree()</text>
<text text-anchor="start" x="7.5" y="-51.5" font-family="FreeSans" font-size="10.00">+ connecterEntree()</text>
<text text-anchor="start" x="7.5" y="-40.5" font-family="FreeSans" font-size="10.00">+ yaDesEchantillons()</text>
<text text-anchor="start" x="7.5" y="-29.5" font-family="FreeSans" font-size="10.00">+ calculer()</text>
<text text-anchor="start" x="7.5" y="-18.5" font-family="FreeSans" font-size="10.00"># getNomFichier()</text>
<text text-anchor="start" x="7.5" y="-7.5" font-family="FreeSans" font-size="10.00"># getStream()</text>
</g>
<!-- Node2 -->
<g id="node2" class="node"><title>Node2</title>
<g id="a_node2"><a xlink:href="classconsommateur.xhtml" target="_top" xlink:title="Interface d&#39;un consommateur d&#39;échantillons sonores. Il s&#39;agit d&#39;une interface décrivant un composant ...">
<polygon fill="white" stroke="black" points="3.5,-182.5 3.5,-283.5 112.5,-283.5 112.5,-182.5 3.5,-182.5"/>
<text text-anchor="middle" x="58" y="-271.5" font-family="FreeSans" font-size="10.00">consommateur</text>
<polyline fill="none" stroke="black" points="3.5,-264.5 112.5,-264.5 "/>
<text text-anchor="middle" x="58" y="-252.5" font-family="FreeSans" font-size="10.00"> </text>
<polyline fill="none" stroke="black" points="3.5,-245.5 112.5,-245.5 "/>
<text text-anchor="start" x="11.5" y="-233.5" font-family="FreeSans" font-size="10.00">+ ~consommateur()</text>
<text text-anchor="start" x="11.5" y="-222.5" font-family="FreeSans" font-size="10.00">+ nbEntrees()</text>
<text text-anchor="start" x="11.5" y="-211.5" font-family="FreeSans" font-size="10.00">+ getEntree()</text>
<text text-anchor="start" x="11.5" y="-200.5" font-family="FreeSans" font-size="10.00">+ connecterEntree()</text>
<text text-anchor="start" x="11.5" y="-189.5" font-family="FreeSans" font-size="10.00">+ yaDesEchantillons()</text>
</a>
</g>
</g>
<!-- Node2&#45;&gt;Node1 -->
<g id="edge1" class="edge"><title>Node2&#45;&gt;Node1</title>
<path fill="none" stroke="midnightblue" d="M58,-172.381C58,-163.656 58,-154.595 58,-145.66"/>
<polygon fill="none" stroke="midnightblue" points="54.5001,-172.441 58,-182.441 61.5001,-172.441 54.5001,-172.441"/>
</g>
<!-- Node3 -->
<g id="node3" class="node"><title>Node3</title>
<g id="a_node3"><a xlink:href="classcomposant.xhtml" target="_top" xlink:title="Interface d&#39;un composant du systeme sonore.">
<polygon fill="white" stroke="black" points="16.5,-321 16.5,-389 99.5,-389 99.5,-321 16.5,-321"/>
<text text-anchor="middle" x="58" y="-377" font-family="FreeSans" font-size="10.00">composant</text>
<polyline fill="none" stroke="black" points="16.5,-370 99.5,-370 "/>
<text text-anchor="middle" x="58" y="-358" font-family="FreeSans" font-size="10.00"> </text>
<polyline fill="none" stroke="black" points="16.5,-351 99.5,-351 "/>
<text text-anchor="start" x="24.5" y="-339" font-family="FreeSans" font-size="10.00">+ ~composant()</text>
<text text-anchor="start" x="24.5" y="-328" font-family="FreeSans" font-size="10.00">+ calculer()</text>
</a>
</g>
</g>
<!-- Node3&#45;&gt;Node2 -->
<g id="edge2" class="edge"><title>Node3&#45;&gt;Node2</title>
<path fill="none" stroke="midnightblue" d="M58,-310.831C58,-302.01 58,-292.661 58,-283.636"/>
<polygon fill="none" stroke="midnightblue" points="54.5001,-310.892 58,-320.892 61.5001,-310.892 54.5001,-310.892"/>
</g>
</g>
</svg>
