<?xml version="1.0" encoding="UTF-8" standalone="no"?>
<!DOCTYPE svg PUBLIC "-//W3C//DTD SVG 1.1//EN"
 "http://www.w3.org/Graphics/SVG/1.1/DTD/svg11.dtd">
<!-- Generated by graphviz version 2.30.1 (20140110.0959)
 -->
<!-- Title: filtre Pages: 1 -->
<svg width="217pt" height="310pt"
 viewBox="0.00 0.00 217.00 310.00" xmlns="http://www.w3.org/2000/svg" xmlns:xlink="http://www.w3.org/1999/xlink">
<g id="graph0" class="graph" transform="scale(1 1) rotate(0) translate(4 306)">
<title>filtre</title>
<polygon fill="white" stroke="white" points="-4,5 -4,-306 214,-306 214,5 -4,5"/>
<!-- Node1 -->
<g id="node1" class="node"><title>Node1</title>
<polygon fill="#bfbfbf" stroke="black" points="71,-0.5 71,-57.5 125,-57.5 125,-0.5 71,-0.5"/>
<text text-anchor="middle" x="98" y="-45.5" font-family="FreeSans" font-size="10.00">filtre</text>
<polyline fill="none" stroke="black" points="71,-38.5 125,-38.5 "/>
<text text-anchor="middle" x="98" y="-26.5" font-family="FreeSans" font-size="10.00"> </text>
<polyline fill="none" stroke="black" points="71,-19.5 125,-19.5 "/>
<text text-anchor="start" x="79" y="-7.5" font-family="FreeSans" font-size="10.00">+ ~filtre()</text>
</g>
<!-- Node2 -->
<g id="node2" class="node"><title>Node2</title>
<g id="a_node2"><a xlink:href="classproducteur.xhtml" target="_top" xlink:title="Interface d&#39;un producteur d&#39;échantillons sonores. Il s&#39;agit d&#39;une interface décrivant un composant ne...">
<polygon fill="white" stroke="black" points="0,-105.5 0,-184.5 82,-184.5 82,-105.5 0,-105.5"/>
<text text-anchor="middle" x="41" y="-172.5" font-family="FreeSans" font-size="10.00">producteur</text>
<polyline fill="none" stroke="black" points="0,-165.5 82,-165.5 "/>
<text text-anchor="middle" x="41" y="-153.5" font-family="FreeSans" font-size="10.00"> </text>
<polyline fill="none" stroke="black" points="0,-146.5 82,-146.5 "/>
<text text-anchor="start" x="8" y="-134.5" font-family="FreeSans" font-size="10.00">+ ~producteur()</text>
<text text-anchor="start" x="8" y="-123.5" font-family="FreeSans" font-size="10.00">+ nbSorties()</text>
<text text-anchor="start" x="8" y="-112.5" font-family="FreeSans" font-size="10.00">+ getSortie()</text>
</a>
</g>
</g>
<!-- Node2&#45;&gt;Node1 -->
<g id="edge1" class="edge"><title>Node2&#45;&gt;Node1</title>
<path fill="none" stroke="midnightblue" d="M64.7852,-96.4296C71.373,-83.2541 78.3064,-69.3871 84.1246,-57.7509"/>
<polygon fill="none" stroke="midnightblue" points="61.6393,-94.8953 60.2976,-105.405 67.9003,-98.0258 61.6393,-94.8953"/>
</g>
<!-- Node3 -->
<g id="node3" class="node"><title>Node3</title>
<g id="a_node3"><a xlink:href="classcomposant.xhtml" target="_top" xlink:title="Interface d&#39;un composant du systeme sonore.">
<polygon fill="white" stroke="black" points="56.5,-233 56.5,-301 139.5,-301 139.5,-233 56.5,-233"/>
<text text-anchor="middle" x="98" y="-289" font-family="FreeSans" font-size="10.00">composant</text>
<polyline fill="none" stroke="black" points="56.5,-282 139.5,-282 "/>
<text text-anchor="middle" x="98" y="-270" font-family="FreeSans" font-size="10.00"> </text>
<polyline fill="none" stroke="black" points="56.5,-263 139.5,-263 "/>
<text text-anchor="start" x="64.5" y="-251" font-family="FreeSans" font-size="10.00">+ ~composant()</text>
<text text-anchor="start" x="64.5" y="-240" font-family="FreeSans" font-size="10.00">+ calculer()</text>
</a>
</g>
</g>
<!-- Node3&#45;&gt;Node2 -->
<g id="edge2" class="edge"><title>Node3&#45;&gt;Node2</title>
<path fill="none" stroke="midnightblue" d="M77.9676,-223.826C71.8923,-211.036 65.2525,-197.058 59.2973,-184.521"/>
<polygon fill="none" stroke="midnightblue" points="74.8215,-225.361 82.2736,-232.892 81.1445,-222.357 74.8215,-225.361"/>
</g>
<!-- Node4 -->
<g id="node4" class="node"><title>Node4</title>
<g id="a_node4"><a xlink:href="classconsommateur.xhtml" target="_top" xlink:title="Interface d&#39;un consommateur d&#39;échantillons sonores. Il s&#39;agit d&#39;une interface décrivant un composant ...">
<polygon fill="white" stroke="black" points="100.5,-94.5 100.5,-195.5 209.5,-195.5 209.5,-94.5 100.5,-94.5"/>
<text text-anchor="middle" x="155" y="-183.5" font-family="FreeSans" font-size="10.00">consommateur</text>
<polyline fill="none" stroke="black" points="100.5,-176.5 209.5,-176.5 "/>
<text text-anchor="middle" x="155" y="-164.5" font-family="FreeSans" font-size="10.00"> </text>
<polyline fill="none" stroke="black" points="100.5,-157.5 209.5,-157.5 "/>
<text text-anchor="start" x="108.5" y="-145.5" font-family="FreeSans" font-size="10.00">+ ~consommateur()</text>
<text text-anchor="start" x="108.5" y="-134.5" font-family="FreeSans" font-size="10.00">+ nbEntrees()</text>
<text text-anchor="start" x="108.5" y="-123.5" font-family="FreeSans" font-size="10.00">+ getEntree()</text>
<text text-anchor="start" x="108.5" y="-112.5" font-family="FreeSans" font-size="10.00">+ connecterEntree()</text>
<text text-anchor="start" x="108.5" y="-101.5" font-family="FreeSans" font-size="10.00">+ yaDesEchantillons()</text>
</a>
</g>
</g>
<!-- Node3&#45;&gt;Node4 -->
<g id="edge4" class="edge"><title>Node3&#45;&gt;Node4</title>
<path fill="none" stroke="midnightblue" d="M118.096,-223.692C122.405,-214.62 126.996,-204.956 131.423,-195.636"/>
<polygon fill="none" stroke="midnightblue" points="114.856,-222.357 113.726,-232.892 121.178,-225.361 114.856,-222.357"/>
</g>
<!-- Node4&#45;&gt;Node1 -->
<g id="edge3" class="edge"><title>Node4&#45;&gt;Node1</title>
<path fill="none" stroke="midnightblue" d="M125.562,-85.125C120.755,-75.5099 115.983,-65.9661 111.795,-57.5894"/>
<polygon fill="none" stroke="midnightblue" points="122.562,-86.9506 130.165,-94.3296 128.823,-83.82 122.562,-86.9506"/>
</g>
</g>
</svg>
