<?xml version="1.0" encoding="UTF-8" standalone="no"?>
<!DOCTYPE svg PUBLIC "-//W3C//DTD SVG 1.1//EN"
 "http://www.w3.org/Graphics/SVG/1.1/DTD/svg11.dtd">
<!-- Generated by graphviz version 2.30.1 (20140110.0959)
 -->
<!-- Title: enregistreur_fichier_texte Pages: 1 -->
<svg width="118pt" height="410pt"
 viewBox="0.00 0.00 118.00 410.00" xmlns="http://www.w3.org/2000/svg" xmlns:xlink="http://www.w3.org/1999/xlink">
<g id="graph0" class="graph" transform="scale(1 1) rotate(0) translate(4 406)">
<title>enregistreur_fichier_texte</title>
<polygon fill="white" stroke="white" points="-4,5 -4,-406 115,-406 115,5 -4,5"/>
<!-- Node1 -->
<g id="node1" class="node"><title>Node1</title>
<polygon fill="#bfbfbf" stroke="black" points="-0.5,-1 -0.5,-157 110.5,-157 110.5,-1 -0.5,-1"/>
<text text-anchor="start" x="7.5" y="-145" font-family="FreeSans" font-size="10.00">enregistreur_fichier</text>
<text text-anchor="middle" x="55" y="-134" font-family="FreeSans" font-size="10.00">_texte</text>
<polyline fill="none" stroke="black" points="-0.5,-127 110.5,-127 "/>
<text text-anchor="middle" x="55" y="-115" font-family="FreeSans" font-size="10.00"> </text>
<polyline fill="none" stroke="black" points="-0.5,-108 110.5,-108 "/>
<text text-anchor="start" x="7.5" y="-96" font-family="FreeSans" font-size="10.00">+ enregistreur_fichier</text>
<text text-anchor="start" x="7.5" y="-85" font-family="FreeSans" font-size="10.00">_texte()</text>
<text text-anchor="start" x="7.5" y="-74" font-family="FreeSans" font-size="10.00">+ ~enregistreur_fichier</text>
<text text-anchor="start" x="7.5" y="-63" font-family="FreeSans" font-size="10.00">_texte()</text>
<text text-anchor="start" x="7.5" y="-52" font-family="FreeSans" font-size="10.00">+ nbEntrees()</text>
<text text-anchor="start" x="7.5" y="-41" font-family="FreeSans" font-size="10.00">+ getEntree()</text>
<text text-anchor="start" x="7.5" y="-30" font-family="FreeSans" font-size="10.00">+ connecterEntree()</text>
<text text-anchor="start" x="7.5" y="-19" font-family="FreeSans" font-size="10.00">+ yaDesEchantillons()</text>
<text text-anchor="start" x="7.5" y="-8" font-family="FreeSans" font-size="10.00">+ calculer()</text>
</g>
<!-- Node2 -->
<g id="node2" class="node"><title>Node2</title>
<g id="a_node2"><a xlink:href="classconsommateur.xhtml" target="_top" xlink:title="Interface d&#39;un consommateur d&#39;échantillons sonores. Il s&#39;agit d&#39;une interface décrivant un composant ...">
<polygon fill="white" stroke="black" points="0.5,-194.5 0.5,-295.5 109.5,-295.5 109.5,-194.5 0.5,-194.5"/>
<text text-anchor="middle" x="55" y="-283.5" font-family="FreeSans" font-size="10.00">consommateur</text>
<polyline fill="none" stroke="black" points="0.5,-276.5 109.5,-276.5 "/>
<text text-anchor="middle" x="55" y="-264.5" font-family="FreeSans" font-size="10.00"> </text>
<polyline fill="none" stroke="black" points="0.5,-257.5 109.5,-257.5 "/>
<text text-anchor="start" x="8.5" y="-245.5" font-family="FreeSans" font-size="10.00">+ ~consommateur()</text>
<text text-anchor="start" x="8.5" y="-234.5" font-family="FreeSans" font-size="10.00">+ nbEntrees()</text>
<text text-anchor="start" x="8.5" y="-223.5" font-family="FreeSans" font-size="10.00">+ getEntree()</text>
<text text-anchor="start" x="8.5" y="-212.5" font-family="FreeSans" font-size="10.00">+ connecterEntree()</text>
<text text-anchor="start" x="8.5" y="-201.5" font-family="FreeSans" font-size="10.00">+ yaDesEchantillons()</text>
</a>
</g>
</g>
<!-- Node2&#45;&gt;Node1 -->
<g id="edge1" class="edge"><title>Node2&#45;&gt;Node1</title>
<path fill="none" stroke="midnightblue" d="M55,-184.182C55,-175.352 55,-166.151 55,-157.032"/>
<polygon fill="none" stroke="midnightblue" points="51.5001,-184.35 55,-194.35 58.5001,-184.35 51.5001,-184.35"/>
</g>
<!-- Node3 -->
<g id="node3" class="node"><title>Node3</title>
<g id="a_node3"><a xlink:href="classcomposant.xhtml" target="_top" xlink:title="Interface d&#39;un composant du systeme sonore.">
<polygon fill="white" stroke="black" points="13.5,-333 13.5,-401 96.5,-401 96.5,-333 13.5,-333"/>
<text text-anchor="middle" x="55" y="-389" font-family="FreeSans" font-size="10.00">composant</text>
<polyline fill="none" stroke="black" points="13.5,-382 96.5,-382 "/>
<text text-anchor="middle" x="55" y="-370" font-family="FreeSans" font-size="10.00"> </text>
<polyline fill="none" stroke="black" points="13.5,-363 96.5,-363 "/>
<text text-anchor="start" x="21.5" y="-351" font-family="FreeSans" font-size="10.00">+ ~composant()</text>
<text text-anchor="start" x="21.5" y="-340" font-family="FreeSans" font-size="10.00">+ calculer()</text>
</a>
</g>
</g>
<!-- Node3&#45;&gt;Node2 -->
<g id="edge2" class="edge"><title>Node3&#45;&gt;Node2</title>
<path fill="none" stroke="midnightblue" d="M55,-322.831C55,-314.01 55,-304.661 55,-295.636"/>
<polygon fill="none" stroke="midnightblue" points="51.5001,-322.892 55,-332.892 58.5001,-322.892 51.5001,-322.892"/>
</g>
</g>
</svg>
