<?xml version="1.0" encoding="UTF-8" standalone="no"?>
<!DOCTYPE svg PUBLIC "-//W3C//DTD SVG 1.1//EN"
 "http://www.w3.org/Graphics/SVG/1.1/DTD/svg11.dtd">
<!-- Generated by graphviz version 2.30.1 (20140110.0959)
 -->
<!-- Title: Graphe hiérarchique des classes Pages: 1 -->
<svg width="322pt" height="116pt"
 viewBox="0.00 0.00 322.00 116.00" xmlns="http://www.w3.org/2000/svg" xmlns:xlink="http://www.w3.org/1999/xlink">
<g id="graph0" class="graph" transform="scale(1 1) rotate(0) translate(4 112)">
<title>Graphe hiérarchique des classes</title>
<polygon fill="white" stroke="white" points="-4,5 -4,-112 319,-112 319,5 -4,5"/>
<!-- Node1 -->
<g id="node1" class="node"><title>Node1</title>
<g id="a_node1"><a xlink:href="classcomposant.xhtml" target="_top" xlink:title="Interface d&#39;un composant du systeme sonore.">
<polygon fill="white" stroke="black" points="0,-22.5 0,-41.5 64,-41.5 64,-22.5 0,-22.5"/>
<text text-anchor="middle" x="32" y="-29.5" font-family="FreeSans" font-size="10.00">composant</text>
</a>
</g>
</g>
<!-- Node2 -->
<g id="node2" class="node"><title>Node2</title>
<g id="a_node2"><a xlink:href="classconsommateur.xhtml" target="_top" xlink:title="Interface d&#39;un consommateur d&#39;échantillons sonores. Il s&#39;agit d&#39;une interface décrivant un composant ...">
<polygon fill="white" stroke="black" points="100,-42.5 100,-61.5 180,-61.5 180,-42.5 100,-42.5"/>
<text text-anchor="middle" x="140" y="-49.5" font-family="FreeSans" font-size="10.00">consommateur</text>
</a>
</g>
</g>
<!-- Node1&#45;&gt;Node2 -->
<g id="edge1" class="edge"><title>Node1&#45;&gt;Node2</title>
<path fill="none" stroke="midnightblue" d="M74.1957,-39.7728C82.5841,-41.3555 91.3882,-43.0166 99.7084,-44.5865"/>
<polygon fill="midnightblue" stroke="midnightblue" points="74.7058,-36.3073 64.2302,-37.8925 73.4078,-43.186 74.7058,-36.3073"/>
</g>
<!-- Node6 -->
<g id="node6" class="node"><title>Node6</title>
<g id="a_node6"><a xlink:href="classproducteur.xhtml" target="_top" xlink:title="Interface d&#39;un producteur d&#39;échantillons sonores. Il s&#39;agit d&#39;une interface décrivant un composant ne...">
<polygon fill="white" stroke="black" points="109,-3.5 109,-22.5 171,-22.5 171,-3.5 109,-3.5"/>
<text text-anchor="middle" x="140" y="-10.5" font-family="FreeSans" font-size="10.00">producteur</text>
</a>
</g>
</g>
<!-- Node1&#45;&gt;Node6 -->
<g id="edge5" class="edge"><title>Node1&#45;&gt;Node6</title>
<path fill="none" stroke="midnightblue" d="M74.0984,-24.6333C85.6268,-22.5669 97.9473,-20.3585 108.722,-18.4272"/>
<polygon fill="midnightblue" stroke="midnightblue" points="73.4558,-21.1926 64.2302,-26.4021 74.6909,-28.0828 73.4558,-21.1926"/>
</g>
<!-- Node3 -->
<g id="node3" class="node"><title>Node3</title>
<g id="a_node3"><a xlink:href="classenregistreur__fichier.xhtml" target="_top" xlink:title="Un consommateur qui enregistre ses entrées dans un fichier binaire ; 44100 Hz, 16bits signé...">
<polygon fill="white" stroke="black" points="216,-88.5 216,-107.5 314,-107.5 314,-88.5 216,-88.5"/>
<text text-anchor="middle" x="265" y="-95.5" font-family="FreeSans" font-size="10.00">enregistreur_fichier</text>
</a>
</g>
</g>
<!-- Node2&#45;&gt;Node3 -->
<g id="edge2" class="edge"><title>Node2&#45;&gt;Node3</title>
<path fill="none" stroke="midnightblue" d="M175.861,-65.0376C195.818,-72.501 220.413,-81.6993 238.547,-88.481"/>
<polygon fill="midnightblue" stroke="midnightblue" points="177.078,-61.7559 166.486,-61.5312 174.626,-68.3124 177.078,-61.7559"/>
</g>
<!-- Node4 -->
<g id="node4" class="node"><title>Node4</title>
<g id="a_node4"><a xlink:href="classenregistreur__fichier__texte.xhtml" target="_top" xlink:title="Un consommateur qui enregistre ses entrées dans un fichier texte ; une ligne = un échantillon de chaq...">
<polygon fill="white" stroke="black" points="216,-39 216,-69 314,-69 314,-39 216,-39"/>
<text text-anchor="start" x="224" y="-57" font-family="FreeSans" font-size="10.00">enregistreur_fichier</text>
<text text-anchor="middle" x="265" y="-46" font-family="FreeSans" font-size="10.00">_texte</text>
</a>
</g>
</g>
<!-- Node2&#45;&gt;Node4 -->
<g id="edge3" class="edge"><title>Node2&#45;&gt;Node4</title>
<path fill="none" stroke="midnightblue" d="M190.255,-52.8009C198.616,-52.9368 207.292,-53.0779 215.63,-53.2135"/>
<polygon fill="midnightblue" stroke="midnightblue" points="190.312,-49.3015 180.256,-52.6383 190.198,-56.3005 190.312,-49.3015"/>
</g>
<!-- Node5 -->
<g id="node5" class="node"><title>Node5</title>
<g id="a_node5"><a xlink:href="classfiltre.xhtml" target="_top" xlink:title="Interface associée à un filtre sonore. Ce filtre est considéré comme un producteur / consommateur d&#39;é...">
<polygon fill="white" stroke="black" points="247.5,-0.5 247.5,-19.5 282.5,-19.5 282.5,-0.5 247.5,-0.5"/>
<text text-anchor="middle" x="265" y="-7.5" font-family="FreeSans" font-size="10.00">filtre</text>
</a>
</g>
</g>
<!-- Node2&#45;&gt;Node5 -->
<g id="edge4" class="edge"><title>Node2&#45;&gt;Node5</title>
<path fill="none" stroke="midnightblue" d="M178.674,-39.1357C201.551,-31.3241 229.631,-21.7358 247.175,-15.745"/>
<polygon fill="midnightblue" stroke="midnightblue" points="177.243,-35.9258 168.911,-42.4695 179.505,-42.5503 177.243,-35.9258"/>
</g>
<!-- Node6&#45;&gt;Node5 -->
<g id="edge6" class="edge"><title>Node6&#45;&gt;Node5</title>
<path fill="none" stroke="midnightblue" d="M181.383,-12.015C203.846,-11.4672 230.587,-10.815 247.431,-10.4041"/>
<polygon fill="midnightblue" stroke="midnightblue" points="181.001,-8.52323 171.089,-12.2661 181.172,-15.5212 181.001,-8.52323"/>
</g>
</g>
</svg>
